<svg
        viewBox="0 0 566 554"
        xmlns="http://www.w3.org/2000/svg"
        fill-rule="evenodd"
        clip-rule="evenodd"
        stroke-linejoin="round"
        stroke-miterlimit="1.5"
>
    <path fill="#ebebeb" d="M2.7 76.971h240v80H2.7z" />
    <path d="M242.7 156.97H2.7V76.971h240v80zm-237-77v74.001h234v-74H5.7z" />
    <path fill="#ebebeb" d="M322.7 176.971h240v80h-240z" />
    <path d="M562.7 256.97h-240v-79.999h240v80zm-237-77v74.001h234v-74h-234zM128.7 64.971l-6 12-6-12h12z" />
    <path
            d="M122.704 16.971v50.4"
            fill="none"
            stroke="#000"
            stroke-width="4"
            transform="translate(-.005)"
    />
    <path d="M452.299 157.772l-9.6 19.2-9.6-19.2h19.2z" />
    <path
            d="M242.704 116.971h200v44.64"
            fill="none"
            stroke="#000"
            stroke-width="8"
            stroke-linejoin="miter"
            transform="translate(-.005)"
    />
    <path fill="#ebebeb" d="M2.7 356.971h240v80H2.7z" />
    <path d="M242.7 436.97H2.7v-79.999h240v80zm-237-77v74.001h234v-74H5.7z" />
    <path fill="#ebebeb" d="M322.7 456.971h240v80h-240z" />
    <path d="M562.7 536.97h-240v-79.999h240v80zm-237-77v74.001h234v-74h-234zM128.7 344.972l-6 12-6-12h12z" />
    <path
            d="M122.704 157.681v189.69"
            fill="none"
            stroke="#000"
            stroke-width="4"
            transform="translate(-.005)"
    />
    <g>
        <path d="M128.7 524.972l-6 12-6-12h12z" />
        <path
                d="M122.704 436.971v90.4"
                fill="none"
                stroke="#000"
                stroke-width="4"
                transform="translate(-.005)"
        />
    </g>
    <g>
        <path d="M452.299 437.772l-9.6 19.2-9.6-19.2h19.2z" />
        <path
                d="M242.704 396.971h200v44.64"
                fill="none"
                stroke="#000"
                stroke-width="8"
                stroke-linejoin="miter"
                transform="translate(-.005)"
        />
    </g>
    <g>
        <text
                x="196.675"
                y="150.71"
                font-family="'HelveticaNeue','Helvetica Neue'"
                font-size="30"
                transform="translate(-97.3 -23.03)"
        >File
        </text>
    </g>
    <g>
        <text
                x="131.095"
                y="150.71"
                font-family="'HelveticaNeue','Helvetica Neue'"
                font-size="30"
                transform="translate(222.7 76.97)"
        >
            Data process
        </text>
    </g>
    <g>
        <text
                x="163.63"
                y="150.71"
                font-family="'HelveticaNeue','Helvetica Neue'"
                font-size="30"
                transform="translate(-97.3 256.26)"
        >Network
        </text>
    </g>
    <g>
        <text
                x="131.095"
                y="150.71"
                font-family="'HelveticaNeue','Helvetica Neue'"
                font-size="30"
                transform="translate(222.7 356.26)"
        >
            Data process
        </text>
    </g>
</svg>
