<svg
        viewBox="0 0 566 481"
        xmlns="http://www.w3.org/2000/svg"
        fill-rule="evenodd"
        clip-rule="evenodd"
        stroke-linejoin="round"
        stroke-miterlimit="1.5"
>
    <path fill="#ebebeb" d="M2.704 123.606h240v80h-240z" />
    <path d="M242.704 203.605h-240v-79.999h240v80zm-237-77v74.001h234v-74h-234z" />
    <path fill="#ebebeb" d="M2.704 263.606h240v80h-240z" />
    <path d="M242.704 343.605h-240v-79.999h240v80zm-237-77v74.001h234v-74h-234z" />
    <path d="M132.304 244.407l-9.6 19.2-9.6-19.2h19.2z" />
    <path d="M122.704 203.606v44.64" fill="none" stroke="#000" stroke-width="8" />
    <path fill="#ebebeb" d="M322.704 123.606h240v80h-240z" />
    <path d="M562.704 203.605h-240v-79.999h240v80zm-237-77v74.001h234v-74h-234z" />
    <path fill="#ebebeb" d="M322.704 263.606h240v80h-240z" />
    <path d="M562.704 343.605h-240v-79.999h240v80zm-237-77v74.001h234v-74h-234zM436.704 111.606l6 12 6-12h-12zM128.704 111.606l-6 12-6-12h12z" />
    <path
            d="M442.704 114.006v-50.4h-320v50.4"
            fill="none"
            stroke="#000"
            stroke-width="4"
            stroke-linejoin="miter"
    />
    <path
            d="M517.939 32.15v75.383h-320V33.032"
            fill="none"
            stroke="#000"
            stroke-width="4.41"
            stroke-linejoin="miter"
            transform="matrix(1 0 0 .80536 -75.235 317.004)"
    />
    <g>
        <path d="M452.304 244.407l-9.6 19.2-9.6-19.2h19.2z" />
        <path d="M442.704 203.606v44.64" fill="none" stroke="#000" stroke-width="8" />
    </g>
    <g>
        <text
                x="196.675"
                y="150.71"
                font-family="'HelveticaNeue','Helvetica Neue'"
                font-size="30"
                transform="translate(-97.296 23.606)"
        >File
        </text>
    </g>
    <g>
        <text
                x="131.095"
                y="150.71"
                font-family="'HelveticaNeue','Helvetica Neue'"
                font-size="30"
                transform="translate(-97.296 163.606)"
        >
            Data process
        </text>
    </g>
    <g>
        <text
                x="163.63"
                y="150.71"
                font-family="'HelveticaNeue','Helvetica Neue'"
                font-size="30"
                transform="translate(222.704 22.896)"
        >Network
        </text>
    </g>
    <g>
        <text
                x="131.095"
                y="150.71"
                font-family="'HelveticaNeue','Helvetica Neue'"
                font-size="30"
                transform="translate(222.704 162.896)"
        >
            Data process
        </text>
    </g>
    <g>
        <path
                d="M282.704 63.606v-60"
                fill="none"
                stroke="#000"
                stroke-width="4"
                stroke-linejoin="miter"
        />
    </g>
    <g>
        <path d="M288.704 451.606l-6 12-6-12h12z" />
        <path
                d="M282.704 403.606v50.4"
                fill="none"
                stroke="#000"
                stroke-width="4"
                stroke-linejoin="miter"
        />
    </g>
</svg>
