<svg
        viewBox="0 0 246 654"
        xmlns="http://www.w3.org/2000/svg"
        fill-rule="evenodd"
        clip-rule="evenodd"
        stroke-linejoin="round"
        stroke-miterlimit="1.5"
>
    <path fill="#ebebeb" d="M2.705 76.971h240v80h-240z" />
    <path d="M242.705 156.97h-240V76.971h240v80zm-237-77v74.001h234v-74h-234z" />
    <path fill="#ebebeb" d="M2.705 216.971h240v80h-240z" />
    <path d="M242.705 296.97h-240v-79.999h240v80zm-237-77v74.001h234v-74h-234zM128.704 64.971l-6 12-6-12h12z" />
    <path d="M122.704 16.971v50.4" fill="none" stroke="#000" stroke-width="4" />
    <path d="M132.304 197.771l-9.6 19.2-9.6-19.2h19.2z" />
    <path d="M122.704 156.971v44.64" fill="none" stroke="#000" stroke-width="8" />
    <path fill="#ebebeb" d="M2.705 356.971h240v80h-240z" />
    <path d="M242.705 436.97h-240v-79.999h240v80zm-237-77v74.001h234v-74h-234z" />
    <path fill="#ebebeb" d="M2.705 496.971h240v80h-240z" />
    <path d="M242.705 576.97h-240v-79.999h240v80zm-237-77v74.001h234v-74h-234zM128.704 344.972l-6 12-6-12h12z" />
    <path d="M122.704 296.971v50.4" fill="none" stroke="#000" stroke-width="4" />
    <g>
        <path d="M128.704 624.972l-6 12-6-12h12z" />
        <path d="M122.704 576.971v50.4" fill="none" stroke="#000" stroke-width="4" />
    </g>
    <g>
        <path d="M132.304 477.772l-9.6 19.2-9.6-19.2h19.2z" />
        <path d="M122.704 436.971v44.64" fill="none" stroke="#000" stroke-width="8" />
    </g>
    <text
            x="196.675"
            y="150.71"
            font-family="'HelveticaNeue','Helvetica Neue'"
            font-size="30"
            transform="translate(-97.296 -23.03)"
    >File
    </text>
    <g>
        <text
                x="131.095"
                y="150.71"
                font-family="'HelveticaNeue','Helvetica Neue'"
                font-size="30"
                transform="translate(-97.296 116.97)"
        >
            Data process
        </text>
    </g>
    <g>
        <text
                x="163.63"
                y="150.71"
                font-family="'HelveticaNeue','Helvetica Neue'"
                font-size="30"
                transform="translate(-97.296 256.26)"
        >Network
        </text>
    </g>
    <g>
        <text
                x="131.095"
                y="150.71"
                font-family="'HelveticaNeue','Helvetica Neue'"
                font-size="30"
                transform="translate(-97.296 396.26)"
        >
            Data process
        </text>
    </g>
</svg>
